<svg width="24" height="24" viewBox="0 0 24 24" fill="none" xmlns="http://www.w3.org/2000/svg">
<path d="M9.87526 4.01074C9.41547 4.01074 8.99544 4.15996 8.65751 4.44752C8.31958 4.73474 8.0562 5.19889 8.0562 5.73704C8.0562 5.75915 8.06295 5.77941 8.06376 5.80133H3.62012C3.2457 5.80133 2.99573 6.0536 2.9583 6.42718V8.61294L9.63889 11.1409C9.93183 10.5795 10.5053 10.191 11.1705 10.1785C11.1819 10.1749 11.1912 10.171 11.2027 10.171H11.9893C12.0023 10.171 12.0143 10.1785 12.0271 10.1785C12.6914 10.1932 13.2638 10.5825 13.555 11.1447L20.2961 8.4768V6.4631C20.2792 6.06984 20.0103 5.80133 19.6191 5.80133H15.1793C15.1801 5.77941 15.1868 5.75915 15.1868 5.73704C15.1868 5.19889 14.9234 4.73496 14.5855 4.44752C14.2476 4.16029 13.8276 4.01074 13.3678 4.01074H9.87526ZM9.87526 5.31917H13.3678C13.615 5.31917 13.8184 5.41477 13.935 5.51393C14.0517 5.61308 14.0674 5.68033 14.0674 5.73704C14.0674 5.76122 14.0575 5.77999 14.0542 5.80133C14.3894 5.80149 14.5836 5.80099 15.0374 5.80133C14.9309 5.98662 14.7768 6.14866 14.5931 6.26835C14.2521 6.49008 13.8276 6.59735 13.3678 6.59735H9.87526C9.41543 6.59735 8.99088 6.49045 8.64995 6.26835C8.46621 6.14872 8.31211 5.98664 8.20558 5.80133C8.77208 5.80133 8.77343 5.8014 9.18886 5.80133C9.18553 5.77999 9.17562 5.76114 9.17562 5.73704C9.17562 5.68033 9.19139 5.61308 9.30798 5.51393C9.4246 5.41477 9.62797 5.31917 9.87526 5.31917ZM20.3018 9.65099L13.763 12.2414V12.8048C13.763 13.7884 12.9613 14.5992 11.9874 14.5992H11.2027C10.2288 14.5992 9.429 13.7883 9.429 12.8048V12.2376L2.9375 9.77578V18.2768C2.9375 18.6134 3.23971 18.9726 3.61823 18.9726H19.621C19.9995 18.9726 20.3018 18.6132 20.3018 18.2768V9.65099ZM11.2027 11.2676V11.2695C11.1407 11.2695 11.0876 11.2888 11.0325 11.2998C11.0019 11.3071 10.9681 11.3021 10.9398 11.3168C10.7064 11.4079 10.5543 11.623 10.5314 11.9067C10.5284 11.9419 10.5221 11.9767 10.5125 12.0107V12.8086C10.5125 13.2171 10.7983 13.5044 11.2027 13.5044H11.9874C12.3918 13.5044 12.6776 13.2171 12.6776 12.8086V12.0126C12.669 11.9804 12.6633 11.9475 12.6606 11.9143C12.6402 11.6256 12.4904 11.4077 12.254 11.3168C12.1752 11.2875 12.0853 11.2676 11.9893 11.2676H11.2027Z" fill="#2795B7"/>
</svg>
