<svg width="24" height="25" viewBox="0 0 24 25" fill="none" xmlns="http://www.w3.org/2000/svg">
<path d="M3.00017 12.5C3.00017 12.2016 3.1187 11.9155 3.32967 11.7045C3.54065 11.4935 3.8268 11.375 4.12517 11.375L17.3057 11.375L12.3752 6.9635C12.2641 6.86528 12.1735 6.74607 12.1086 6.61272C12.0438 6.47937 12.0059 6.33452 11.9972 6.18648C11.9885 6.03845 12.0092 5.89016 12.058 5.75015C12.1069 5.61013 12.1829 5.48115 12.2818 5.37063C12.3806 5.2601 12.5004 5.17021 12.6341 5.10613C12.7678 5.04204 12.9129 5.00502 13.061 4.99721C13.2091 4.98939 13.3572 5.01092 13.497 5.06057C13.6367 5.11022 13.7652 5.187 13.8752 5.2865L21.0002 11.6615C21.1184 11.767 21.213 11.8963 21.2777 12.041C21.3425 12.1856 21.376 12.3423 21.376 12.5008C21.376 12.6592 21.3425 12.8159 21.2777 12.9605C21.213 13.1052 21.1184 13.2345 21.0002 13.34L13.8752 19.715C13.7652 19.8145 13.6367 19.8913 13.497 19.9409C13.3572 19.9906 13.2091 20.0121 13.061 20.0043C12.9129 19.9965 12.7678 19.9595 12.6341 19.8954C12.5004 19.8313 12.3806 19.7414 12.2818 19.6309C12.1829 19.5203 12.1069 19.3914 12.0581 19.2514C12.0092 19.1113 11.9885 18.963 11.9972 18.815C12.0059 18.667 12.0438 18.5221 12.1086 18.3888C12.1735 18.2554 12.2641 18.1362 12.3752 18.038L17.3057 13.625L4.12517 13.625C3.8268 13.625 3.54065 13.5065 3.32967 13.2955C3.1187 13.0845 3.00017 12.7984 3.00017 12.5Z" fill="white"/>
</svg>
