<svg width="24" height="24" viewBox="0 0 24 24" fill="none" xmlns="http://www.w3.org/2000/svg">
<path d="M0 21.0991C0.000539134 21.8683 0.27163 22.6059 0.753749 23.1499C1.23587 23.6938 1.88961 23.9997 2.57143 24.0003H21.4286C22.1104 23.9997 22.7641 23.6938 23.2463 23.1499C23.7284 22.6059 23.9995 21.8683 24 21.0991V8.50293H0V21.0991ZM18.8571 10.4516C19.1956 10.4559 19.519 10.6106 19.757 10.8822C19.995 11.1538 20.1285 11.5203 20.1284 11.9022C20.1284 12.2841 19.995 12.6506 19.7569 12.9222C19.5189 13.1938 19.1956 13.3485 18.8571 13.3528C18.5186 13.3485 18.1953 13.1938 17.9573 12.9222C17.7193 12.6506 17.5858 12.2841 17.5858 11.9022C17.5858 11.5202 17.7193 11.1537 17.9573 10.8822C18.1953 10.6106 18.5187 10.4559 18.8571 10.4516ZM18.8571 14.8034C19.1956 14.8077 19.519 14.9624 19.757 15.234C19.995 15.5056 20.1285 15.8721 20.1284 16.254C20.1284 16.636 19.995 17.0025 19.7569 17.274C19.5189 17.5456 19.1956 17.7003 18.8571 17.7046C18.5186 17.7003 18.1953 17.5456 17.9573 17.274C17.7193 17.0024 17.5858 16.6359 17.5858 16.254C17.5858 15.8721 17.7193 15.5056 17.9573 15.234C18.1953 14.9624 18.5187 14.8077 18.8571 14.8034ZM18.8571 19.1552C19.1956 19.1595 19.519 19.3143 19.757 19.5858C19.995 19.8574 20.1285 20.2239 20.1284 20.6059C20.1284 20.9878 19.995 21.3543 19.7569 21.6259C19.5189 21.8974 19.1956 22.0522 18.8571 22.0565C18.5186 22.0522 18.1953 21.8974 17.9573 21.6258C17.7193 21.3543 17.5858 20.9877 17.5858 20.6058C17.5858 20.2239 17.7193 19.8574 17.9573 19.5858C18.1953 19.3142 18.5187 19.1595 18.8571 19.1552ZM12 10.4516C12.3385 10.4559 12.6618 10.6106 12.8998 10.8822C13.1378 11.1538 13.2713 11.5203 13.2713 11.9022C13.2713 12.2841 13.1378 12.6506 12.8998 12.9222C12.6618 13.1938 12.3384 13.3485 12 13.3528C11.6615 13.3485 11.3381 13.1938 11.1001 12.9222C10.8621 12.6506 10.7287 12.2841 10.7287 11.9022C10.7287 11.5202 10.8622 11.1537 11.1002 10.8822C11.3382 10.6106 11.6615 10.4559 12 10.4516ZM12 14.8034C12.3385 14.8077 12.6618 14.9624 12.8998 15.234C13.1378 15.5056 13.2713 15.8721 13.2713 16.254C13.2713 16.636 13.1378 17.0025 12.8998 17.274C12.6618 17.5456 12.3384 17.7003 12 17.7046C11.6615 17.7003 11.3381 17.5456 11.1001 17.274C10.8621 17.0024 10.7287 16.6359 10.7287 16.254C10.7287 15.8721 10.8622 15.5056 11.1002 15.234C11.3382 14.9624 11.6615 14.8077 12 14.8034ZM12 19.1552C12.3385 19.1595 12.6618 19.3143 12.8998 19.5858C13.1378 19.8574 13.2713 20.2239 13.2713 20.6059C13.2713 20.9878 13.1378 21.3543 12.8998 21.6259C12.6618 21.8974 12.3384 22.0522 12 22.0565C11.6615 22.0522 11.3381 21.8974 11.1001 21.6258C10.8621 21.3543 10.7287 20.9877 10.7287 20.6058C10.7287 20.2239 10.8622 19.8574 11.1002 19.5858C11.3382 19.3142 11.6615 19.1595 12 19.1552ZM5.14286 10.4516C5.48134 10.4559 5.80467 10.6106 6.04268 10.8822C6.28068 11.1538 6.41417 11.5203 6.41416 11.9022C6.41416 12.2841 6.28066 12.6506 6.04265 12.9222C5.80464 13.1938 5.48131 13.3485 5.14282 13.3528C4.80433 13.3485 4.481 13.1938 4.243 12.9222C4.00499 12.6506 3.87151 12.2841 3.87151 11.9022C3.87152 11.5202 4.00501 11.1537 4.24303 10.8822C4.48104 10.6106 4.80437 10.4559 5.14286 10.4516ZM5.14286 14.8034C5.48134 14.8077 5.80467 14.9624 6.04268 15.234C6.28068 15.5056 6.41417 15.8721 6.41416 16.254C6.41416 16.636 6.28066 17.0025 6.04265 17.274C5.80464 17.5456 5.48131 17.7003 5.14282 17.7046C4.80433 17.7003 4.481 17.5456 4.243 17.274C4.00499 17.0024 3.87151 16.6359 3.87151 16.254C3.87152 15.8721 4.00501 15.5056 4.24303 15.234C4.48104 14.9624 4.80437 14.8077 5.14286 14.8034ZM5.14286 19.1552C5.48134 19.1595 5.80467 19.3143 6.04268 19.5858C6.28068 19.8574 6.41417 20.2239 6.41416 20.6059C6.41416 20.9878 6.28066 21.3543 6.04265 21.6259C5.80464 21.8974 5.48131 22.0522 5.14282 22.0565C4.80433 22.0522 4.481 21.8974 4.243 21.6258C4.00499 21.3543 3.87151 20.9877 3.87151 20.6058C3.87152 20.2239 4.00501 19.8574 4.24303 19.5858C4.48104 19.3142 4.80437 19.1595 5.14286 19.1552Z" fill="#2795B7"/>
<path d="M21.4286 1.93443H18.6729C18.6729 1.66445 18.6228 1.39745 18.5259 1.15062C18.429 0.90378 18.2873 0.682575 18.1101 0.501235C17.9328 0.319896 17.7238 0.18244 17.4966 0.0977121C17.2694 0.0129844 17.029 -0.0171374 16.7909 0.00928504C16.359 0.0696038 15.9621 0.307996 15.6765 0.678598C15.391 1.0492 15.2371 1.52583 15.2443 2.0168V2.9015C15.2442 3.34489 15.3792 3.77485 15.6265 4.11938C15.8739 4.46392 16.2187 4.7021 16.6031 4.79406C16.713 4.81759 16.8104 4.88863 16.8746 4.99204C16.9388 5.09545 16.9646 5.22305 16.9465 5.34762C16.9285 5.4722 16.868 5.5839 16.7781 5.6589C16.6881 5.73391 16.5757 5.76628 16.4648 5.74913C15.8799 5.61928 15.353 5.26441 14.974 4.74508C14.5951 4.22575 14.3877 3.57416 14.3871 2.9015V1.93443H9.61286C9.61067 1.67847 9.56349 1.42555 9.47404 1.19031C9.3846 0.955073 9.25467 0.7422 9.09178 0.564024C8.9289 0.385848 8.73629 0.245911 8.52513 0.15232C8.31396 0.0587291 8.08844 0.0133453 7.86162 0.0187978C7.6348 0.0242503 7.41119 0.0804308 7.20375 0.184084C6.99631 0.287738 6.80916 0.436804 6.65315 0.622646C6.49714 0.808488 6.37537 1.02741 6.29488 1.26673C6.2144 1.50605 6.17681 1.76102 6.18429 2.01685V2.9015C6.18421 3.34489 6.31916 3.77485 6.56653 4.11939C6.81389 4.46392 7.15867 4.70211 7.54311 4.79406C7.65303 4.81759 7.75045 4.88864 7.8146 4.99204C7.87875 5.09545 7.90456 5.22305 7.88653 5.34762C7.86849 5.47219 7.80804 5.58389 7.71806 5.65889C7.62808 5.7339 7.51569 5.76628 7.40485 5.74913C6.81987 5.61928 6.29296 5.26441 5.91404 4.74508C5.53513 4.22575 5.32769 3.57416 5.32714 2.9015V1.93443H2.57143C1.88983 1.93586 1.23652 2.24198 0.754554 2.78575C0.272592 3.32953 0.00126763 4.06663 0 4.83565V7.52894H24V4.83565C23.9987 4.06663 23.7274 3.32953 23.2454 2.78575C22.7635 2.24198 22.1102 1.93586 21.4286 1.93443ZM7.04143 1.93443C7.0447 1.68037 7.13644 1.43797 7.29684 1.25962C7.45723 1.08126 7.67339 0.981283 7.89859 0.981289C8.12379 0.981295 8.33994 1.08128 8.50033 1.25965C8.66072 1.43801 8.75246 1.68041 8.75571 1.93447L7.04143 1.93443ZM16.1014 1.93443C16.1047 1.68037 16.1964 1.43797 16.3568 1.25962C16.5172 1.08126 16.7334 0.981283 16.9586 0.981289C17.1838 0.981295 17.3999 1.08128 17.5603 1.25965C17.7207 1.43801 17.8125 1.68041 17.8157 1.93447L16.1014 1.93443Z" fill="#2795B7"/>
<path d="M5.15159 16.7407C5.26434 16.7389 5.37194 16.6871 5.45111 16.5965C5.53028 16.5059 5.57467 16.3838 5.57467 16.2566C5.57467 16.1294 5.53028 16.0073 5.45111 15.9167C5.37194 15.8261 5.26434 15.7743 5.15159 15.7725C5.03884 15.7743 4.93124 15.8261 4.85207 15.9167C4.7729 16.0073 4.72852 16.1294 4.72852 16.2566C4.72852 16.3838 4.7729 16.5059 4.85207 16.5965C4.93124 16.6871 5.03884 16.7389 5.15159 16.7407Z" fill="#2795B7"/>
</svg>
