<svg width="24" height="24" viewBox="0 0 24 24" fill="none" xmlns="http://www.w3.org/2000/svg">
<path d="M4.431 12.8217L17.431 21.8217C17.581 21.9255 17.7566 21.9863 17.9387 21.9975C18.1208 22.0087 18.3025 21.9698 18.4641 21.8851C18.6257 21.8005 18.761 21.6732 18.8555 21.5171C18.95 21.3611 18.9999 21.1821 19 20.9997V2.99969C19.0001 2.81716 18.9503 2.63809 18.8559 2.48187C18.7615 2.32565 18.6262 2.19824 18.4645 2.11346C18.3029 2.02867 18.1211 1.98974 17.9389 2.00089C17.7568 2.01204 17.5811 2.07283 17.431 2.17669L4.431 11.1767C4.29856 11.2691 4.1904 11.3922 4.11571 11.5354C4.04103 11.6786 4.00202 11.8377 4.00202 11.9992C4.00202 12.1607 4.04103 12.3198 4.11571 12.463C4.1904 12.6062 4.29856 12.7293 4.431 12.8217Z" fill="#D5C18E"/>
</svg>
