<svg width="156" height="33" viewBox="0 0 156 33" fill="none" xmlns="http://www.w3.org/2000/svg">
  <path d="M139.73 7.69925C141.844 7.69925 143.558 5.97571 143.558 3.84962C143.558 1.72354 141.844 0 139.73 0C137.616 0 135.902 1.72354 135.902 3.84962C135.902 5.97571 137.616 7.69925 139.73 7.69925Z" fill="white"></path>
  <path d="M152.172 0C150.018 0 148.344 1.68421 148.344 3.84962C148.344 6.01504 150.018 7.69925 152.172 7.69925C154.325 7.69925 156 6.01504 156 3.84962C156 1.68421 154.325 0 152.172 0Z" fill="white"></path>
  <path d="M36.368 0.962406H32.3005V31.2782H36.368V0.962406Z" fill="white"></path>
  <path d="M47.6135 1.44361H43.546V7.45865H39.4785V10.8271H43.546V25.2632C43.546 30.5564 45.6994 31.5188 50.4846 31.5188C51.4417 31.5188 52.638 31.5188 53.8343 31.2782H54.0736V27.4286H53.8343C52.638 27.4286 51.681 27.6692 50.9632 27.6692C48.5705 27.6692 47.8527 27.188 47.8527 25.0226V10.8271H54.0736V7.45865H47.8527L47.6135 1.44361Z" fill="white"></path>
  <path d="M111.975 0.962406H107.669V31.2782H111.975V0.962406Z" fill="white"></path>
  <path d="M9.57055 0.962406L0 31.2782H4.30675L7.17791 22.1353H13.3988V18.2857H8.37423L13.8773 0.962406H9.57055Z" fill="white"></path>
  <path d="M15.0737 0.962406L20.5768 18.2857H15.5523V22.1353H21.7731L24.6443 31.2782H28.951L19.3805 0.962406H15.0737Z" fill="white"></path>
  <path d="M74.411 22.8571C73.6933 25.985 71.5399 27.9098 68.4295 28.391H68.1902V32.2406H68.4295C73.9325 32 78 28.391 78.7178 23.0977V22.8571H74.411Z" fill="white"></path>
  <path d="M68.4295 6.73684V10.5865C71.7792 11.0677 74.1718 13.4737 74.4111 17.0827H60.0553C60.2945 13.4737 62.6872 11.0677 66.2761 10.5865V6.97744C59.816 7.45865 55.9878 12.2707 55.9878 19.4887C55.9878 26.9474 59.816 31.5188 66.2761 32V28.1504C62.6872 27.6692 60.2945 24.5413 60.0553 20.2105H78.9571V18.2857C78.9571 12.0301 74.6504 7.21805 68.4295 6.73684Z" fill="white"></path>
  <path d="M94.0308 6.73684V10.5865C97.6197 10.8271 99.7731 13.2331 100.012 16.8421V17.0827H104.319V16.8421C104.08 11.0677 100.012 7.21805 94.0308 6.73684Z" fill="white"></path>
  <path d="M100.012 21.6541C99.7729 25.5038 97.141 28.1504 93.3128 28.1504C89.006 28.1504 86.1349 24.5414 86.1349 19.2481C86.1349 14.6767 88.5275 11.5489 92.1165 10.8271V6.97744C85.8956 7.69925 81.8281 12.5113 81.8281 19.2481C81.8281 26.9474 86.3741 32 93.3128 32C99.7729 32 104.08 27.9098 104.319 21.6541V21.4135H100.012V21.6541Z" fill="white"></path>
  <path d="M120.111 6.73684C117.718 6.73684 115.804 7.45865 114.129 9.14286V12.5113C115.325 11.3083 116.761 10.5865 118.675 10.5865C122.264 10.5865 124.417 12.9925 124.417 16.6015V31.0376H128.485V15.6391C128.724 10.3459 125.135 6.73684 120.111 6.73684Z" fill="white"></path>
</svg>